<svg width="40" height="40" viewBox="0 0 40 40" fill="none" xmlns="http://www.w3.org/2000/svg">
<path d="M38.51 22.145L38.6366 22.0134C39.145 21.4867 40 20.6034 40 19.3917V18.3334C40 17.4134 39.255 16.6667 38.3334 16.6667H36.9884L21.6667 10.5384V1.66664C21.6666 0.746641 20.9216 0 20 0C19.0784 0 18.3334 0.746641 18.3334 1.66664V10.5383L3.01164 16.6666H1.66664C0.745 16.6666 0 17.4134 0 18.3334V19.3934C0 20.6084 0.86 21.4934 1.37164 22.0234L1.49164 22.1467C1.60328 22.2634 1.66664 22.4317 1.66664 22.6084V34.0584C1.66664 34.235 1.60328 34.4034 1.49 34.5217L1.36336 34.6534C0.855 35.18 0 36.0634 0 37.275V38.3334C0 39.2534 0.745 40 1.66664 40H38.3333C39.2549 40 39.9999 39.2534 39.9999 38.3334V37.2767C39.9999 36.0667 39.1466 35.1834 38.6383 34.6567L38.5066 34.5201C38.3966 34.4034 38.3333 34.2367 38.3333 34.0617V22.6084C38.3334 22.4316 38.3966 22.2634 38.51 22.145ZM20 13.4616L28.0116 16.6666H11.9884L20 13.4616ZM11.6667 35C10.745 35 10 34.2534 10 33.3334V23.3334C10 22.4134 10.745 21.6667 11.6666 21.6667C12.5883 21.6667 13.3333 22.4134 13.3333 23.3334V33.3334H13.3334C13.3334 34.2534 12.5884 35 11.6667 35ZM21.6666 33.3334C21.6666 34.2534 20.9216 35 20 35C19.0784 35 18.3334 34.2534 18.3334 33.3334V23.3334C18.3334 22.4134 19.0784 21.6667 20 21.6667C20.9216 21.6667 21.6666 22.4134 21.6666 23.3334V33.3334V33.3334ZM30 33.3334C30 34.2534 29.255 35 28.3334 35C27.4117 35 26.6667 34.2534 26.6667 33.3334V23.3334C26.6667 22.4134 27.4117 21.6667 28.3334 21.6667C29.255 21.6667 30 22.4134 30 23.3334V33.3334Z" fill="black"/>
</svg>
