<svg width="40" height="40" viewBox="0 0 40 40" fill="none" xmlns="http://www.w3.org/2000/svg">
<path d="M31.1475 40C33.1394 40 34.7541 37.704 34.7541 34.8718C34.7541 32.0396 33.1394 29.7436 31.1475 29.7436C29.1557 29.7436 27.541 32.0396 27.541 34.8718C27.541 37.704 29.1557 40 31.1475 40Z" fill="black"/>
<path d="M6.88524 40C8.87709 40 10.4918 37.704 10.4918 34.8718C10.4918 32.0396 8.87709 29.7436 6.88524 29.7436C4.8934 29.7436 3.27869 32.0396 3.27869 34.8718C3.27869 37.704 4.8934 40 6.88524 40Z" fill="black"/>
<path d="M31.6597 6.22963H23.6064V35.3869H25.2476C25.2476 30.8913 27.7945 27.2434 30.9333 27.2434C34.0721 27.2434 36.619 30.8913 36.619 35.3869H40V22.7092L31.6597 6.22963ZM28.3415 26.7553H26.3237C25.8395 26.7553 25.4538 26.203 25.4538 25.5094C25.4538 24.8158 25.8395 24.2634 26.3237 24.2634H28.3415C28.8258 24.2634 29.2114 24.8158 29.2114 25.5094C29.2473 26.203 28.8348 26.7553 28.3415 26.7553ZM25.8395 21.7074V9.42793H30.5477L36.7536 21.7074H25.8395Z" fill="black"/>
<path d="M0 35.8974H1.87546C1.87546 31.3789 4.01454 27.7124 6.65073 27.7124C9.28692 27.7124 11.426 31.3789 11.426 35.8974H21.6393V26.6667H0V35.8974Z" fill="black"/>
<path d="M0 0V7.13682H4.42281V5.97709C4.42281 3.88702 5.86191 2.72729 6.8188 4.05269L11.2341 10.119C11.9574 11.113 11.9574 12.9865 11.2265 13.9805L6.81127 20.0086C5.84684 21.3213 4.41527 20.1615 4.41527 18.0714V16.899H0V23.5897H21.6393V0.0127441H0V0Z" fill="black"/>
<path d="M6.05919 18.4615L10.4918 12.3276L6.05919 6.15384V9.85012H0V14.805H6.05919V18.4615Z" fill="black"/>
</svg>
